<?xml version="1.0" encoding="UTF-8"?>
<svg id="Layer_2" data-name="Layer 2" xmlns="http://www.w3.org/2000/svg" viewBox="0 0 63.08 62.77">
  <defs>
    <style>
      .cls-1 {
        fill: #272563;
      }
    </style>
  </defs>
  <g id="Objects">
    <g>
      <path class="cls-1" d="M63.08,22.82h-7.25l1.58-1.58-15.25-15.25h20.92v16.82ZM59.82,20.72h1.16v-12.62h-13.77l12.62,12.62Z"/>
      <path class="cls-1" d="M13.77,21.24l15.24-15.24H8.41C3.78,6,0,9.78,0,14.41c0,.7.09,1.38.25,2.03.35,1.4,1.05,2.67,2.01,3.7.13.14.27.27.41.4.03.03.05.06.09.09.95.86,2.1,1.51,3.37,1.87,0,0,.02,0,.03.01.14.03.28.07.42.1.15.03.29.07.45.09.11.02.21.04.33.05.34.05.7.07,1.05.07h6.94l-1.06-1.05-.52-.52ZM2.45,16.49c-.21-.59-.33-1.22-.35-1.88,0-.07,0-.14,0-.21,0-3.47,2.84-6.31,6.31-6.31h15.56l-12.62,12.62h-2.94c-2.74,0-5.09-1.77-5.96-4.22Z"/>
      <path class="cls-1" d="M25.23,21.45l.74-.74h-5.68l-.53.53,1.68,1.57h5.15l-1.37-1.37ZM16.82,21.24l.53-.53h-3.05l-.53.53.52.52,1.06,1.05h3.05l-1.06-1.05-.52-.52ZM2.27,20.16c.13.13.26.26.4.38-.14-.13-.27-.26-.41-.4,0,0,0,.01,0,.02ZM8.41,20.71c-2.74,0-5.09-1.77-5.96-4.22-.21-.59-.33-1.22-.35-1.88,0-.07,0-.14,0-.21H0v40.8c0,4.2,3.36,7.56,7.56,7.56h55.52V20.71H8.41ZM60.98,60.67H7.56c-2.89,0-5.22-2.18-5.45-4.92-.01-.15-.02-.29-.02-.44V19.98c.05.06.11.12.17.17.13.13.26.26.4.38.03.03.05.06.09.09.96.84,2.1,1.5,3.37,1.87,0,0,.02,0,.03.01.14.03.28.07.42.1.15.03.29.07.45.09.11.02.21.04.33.05.34.05.7.07,1.05.07h52.57v37.86Z"/>
      <path class="cls-1" d="M63.08,48.05h-13.67c-4.1,0-7.36-3.26-7.36-7.36s3.26-7.36,7.36-7.36h13.67v14.72ZM49.41,35.44c-2.94,0-5.26,2.31-5.26,5.26s2.31,5.26,5.26,5.26h11.57v-10.51h-11.57Z"/>
      <path class="cls-1" d="M50.47,44.9c-2.31,0-4.21-1.89-4.21-4.21s1.89-4.21,4.21-4.21,4.21,1.89,4.21,4.21-1.89,4.21-4.21,4.21ZM50.47,38.59c-1.16,0-2.1.95-2.1,2.1s.95,2.1,2.1,2.1,2.1-.95,2.1-2.1-.95-2.1-2.1-2.1Z"/>
      <path class="cls-1" d="M59.82,20.71L39.42.32c-.42-.42-1.26-.42-1.68,0l-2.12,2.12-.72.72-.73.74h0l-16.82,16.82-.53.53.52.52,1.06,1.05h40.38l1.57-1.57-.53-.53ZM20.3,20.71L38.59,2.42l18.29,18.29H20.3Z"/>
      <path class="cls-1" d="M35.64,3.89l-.74-.74-2.2-2.21q-.11-.1-.21,0l-5.03,5.05-14.63,14.71-.53.53.52.52h6l-.53-.52L35.64,3.89ZM14.3,20.71l14.71-14.71,3.58-3.58,1.57,1.47-16.82,16.82h-3.05Z"/>
      <path class="cls-1" d="M37.11,3.89l-1.49-1.45-2.18-2.12c-.42-.42-1.27-.42-1.68,0l-5.66,5.68-14.63,14.71-.53.53,1.57,1.57h8.94l-1.68-1.57L37.11,3.89ZM14.3,20.71l14.71-14.71,3.58-3.58,1.57,1.47-16.82,16.82h-3.05Z"/>
      <path class="cls-1" d="M51.2,20.71l-11.78-11.77c-.21-.21-.52-.31-.84-.31h-.53l-12.09,12.09-.74.74,1.37,1.37h23.97l1.37-1.37-.74-.74ZM39.32,10.31c0,.11-.11.11,0,0h0ZM28.91,20.71l9.68-9.67,9.67,9.67h-19.34Z"/>
    </g>
  </g>
</svg>